<?xml version="1.0" encoding="UTF-8" standalone="no"?>
<!DOCTYPE svg PUBLIC "-//W3C//DTD SVG 1.1//EN" "http://www.w3.org/Graphics/SVG/1.1/DTD/svg11.dtd">
<svg xmlns="http://www.w3.org/2000/svg" version="1.1" width="45" height="45">
  <g style="fill:#000;
            stroke:#000;
            stroke-width:1.5;"
     transform="translate(0,0.3)">
    
      <path
      d="m 22.5,13
          l 7,7
          c 0,0 7,7 0,14
          c 0,0 -7,7 -14,0
          c 0,0 -7,-7 0,-14 z"/>
      <path
      d="m 22.5,5
          l 5,5
          l -5,5
          l -5,-5
          l 5,-5 z"/>
      <path
      d="m 7.5,31
          c 0,0 -2,12 10,6
          c 0,0 5,-2 10,0
          c 0,0 12,6 10,-6
          "
      style= "fill:none;
              stroke:#000;
              stroke-width:4.5;
              stroke-linecap:round;"/>
      <path
      d="m 7.5,31
          c 0,0 -2,12 10,6
          c 0,0 5,-2 10,0
          c 0,0 12,6 10,-6"
      style= "fill:none;
              stroke:#fff;
              stroke-linecap:round;"/>
      <path
      d="m 22.5, 20.5
          l 0,10
          l 0,-5
          l -5,0
          l 10,0"
      style= "stroke:#fff;
              stroke-linecap:round;"/>
  </g>
</svg>